<svg width="190" height="191" viewBox="0 0 190 191" fill="none" xmlns="http://www.w3.org/2000/svg">
<g clip-path="url(#clip0_9_772)">
<path d="M95 0.910217C42.5348 0.910217 0 43.4301 0 95.9102C0 148.39 42.5348 190.91 95 190.91C147.465 190.91 190 148.364 190 95.9102C190 43.4561 147.465 0.910217 95 0.910217Z" fill="#23CD4C"/>
<path d="M8.8224e-05 95.91C-0.021357 111.613 3.86715 127.074 11.3147 140.898C20.8032 143.684 30.642 145.094 40.5309 145.087C97.6423 145.087 143.94 98.7897 143.94 41.6783C143.948 31.6326 142.493 21.6393 139.62 12.0131C125.887 4.69783 110.56 0.884081 95.0001 0.909994C42.5349 0.909994 8.8224e-05 43.4299 8.8224e-05 95.91Z" fill="#74DA7F"/>
<path d="M149.18 80.1684L92.0797 140.133C90.5236 141.766 88.654 143.067 86.5829 143.96C84.5118 144.853 82.2818 145.318 80.0265 145.329H79.9523C77.7096 145.329 75.4896 144.879 73.4242 144.005C71.3588 143.131 69.49 141.851 67.9289 140.241L37.6291 109.032C36.0635 107.461 34.8257 105.594 33.9874 103.54C33.1491 101.486 32.727 99.2866 32.7457 97.0685C32.7644 94.8503 33.2235 92.658 34.0962 90.6187C34.969 88.5794 36.2381 86.7337 37.83 85.1888C39.4218 83.644 41.3046 82.4306 43.3691 81.6192C45.4336 80.8079 47.6387 80.4146 49.8564 80.4623C52.0741 80.51 54.2603 80.9977 56.288 81.897C58.3157 82.7964 60.1446 84.0895 61.6685 85.7014L79.8336 104.412L124.918 57.0678C126.428 55.4484 128.244 54.1445 130.262 53.2315C132.279 52.3185 134.458 51.8146 136.671 51.7489C138.884 51.6831 141.089 52.0569 143.157 52.8486C145.225 53.6402 147.115 54.834 148.719 56.361C150.323 57.8879 151.608 59.7177 152.5 61.7444C153.392 63.7711 153.873 65.9546 153.916 68.1686C153.959 70.3825 153.563 72.583 152.75 74.6427C151.937 76.7025 150.723 78.5806 149.18 80.1684Z" fill="white"/>
</g>
<defs>
<clipPath id="clip0_9_772">
<rect width="190" height="190" fill="white" transform="translate(0 0.910217)"/>
</clipPath>
</defs>
</svg>
